<svg xmlns="http://www.w3.org/2000/svg" version="1.1" xmlns:xlink="http://www.w3.org/1999/xlink" xmlns:svgjs="http://svgjs.dev/svgjs" width="1440" height="560" preserveAspectRatio="none" viewBox="0 0 1440 560"><g mask="url(&quot;#SvgjsMask1006&quot;)" fill="none"><rect width="1440" height="560" x="0" y="0" fill="rgba(197, 217, 235, 1)"></rect><path d="M0,432.05C78.967,417.36,142.859,369.847,215.033,334.598C298.452,293.857,405.255,285.749,457.159,208.778C510.541,129.616,513.882,21.737,487.975,-70.16C463.357,-157.486,390.507,-220.139,320.109,-277.376C258.895,-327.146,184.852,-350.053,110.675,-376.924C31.31,-405.674,-45.097,-446.884,-129.24,-440.152C-223.991,-432.572,-341.071,-419.12,-388.872,-336.96C-438.107,-252.334,-365.747,-148.5,-355.577,-51.124C-348.294,18.61,-349.487,85.073,-337.578,154.167C-321.467,247.636,-346.658,365.187,-273.43,425.466C-201.586,484.606,-91.484,449.069,0,432.05" fill="#85afd5"></path><path d="M1440 1044.618C1527.512 1027.627 1597.305 966.7860000000001 1662.032 905.488 1717.522 852.938 1740.292 779.475 1785.24 717.6659999999999 1844.665 635.951 1962.873 584.887 1968.539 484.008 1974.109 384.847 1881.67 308.466 1812.212 237.47699999999998 1746.083 169.89100000000002 1673.343 94.49200000000002 1579.164 86.05200000000002 1487.912 77.87400000000002 1421.985 174.041 1332.681 194.50400000000002 1234.328 217.041 1108.833 140.01100000000002 1036.53 210.392 965.918 279.127 1028.516 401.404 1019.3389999999999 499.51800000000003 1010.758 591.261 960.492 679.085 984.365 768.082 1010.012 863.693 1070.038 952.634 1154.662 1003.995 1238.489 1054.872 1343.739 1063.307 1440 1044.618" fill="#ffffff"></path></g><defs><mask id="SvgjsMask1006"><rect width="1440" height="560" fill="#ffffff"></rect></mask></defs></svg>